<svg width="14" height="18" viewBox="0 0 14 18" fill="none" xmlns="http://www.w3.org/2000/svg">
<path d="M13.1252 15.6953H0.878447C0.646443 15.6953 0.423942 15.7875 0.259891 15.9516C0.0958398 16.1156 0.00367662 16.3381 0.00367662 16.5701C0.00367662 16.8021 0.0958398 17.0246 0.259891 17.1887C0.423942 17.3527 0.646443 17.4449 0.878447 17.4449H13.1252C13.3572 17.4449 13.5797 17.3527 13.7438 17.1887C13.9078 17.0246 14 16.8021 14 16.5701C14 16.3381 13.9078 16.1156 13.7438 15.9516C13.5797 15.7875 13.3572 15.6953 13.1252 15.6953ZM0.878447 13.9458H0.957176L4.60497 13.6134C5.00456 13.5736 5.37829 13.3975 5.66344 13.1148L13.5364 5.24183C13.8419 4.91901 14.0071 4.48823 13.9956 4.04387C13.9841 3.59951 13.797 3.17782 13.4751 2.87121L11.0783 0.474336C10.7654 0.180497 10.3555 0.0118965 9.92648 0.000606004C9.49745 -0.0106845 9.07922 0.136123 8.75138 0.413102L0.878447 8.28603C0.595691 8.57118 0.419634 8.94491 0.379828 9.34451L0.00367662 12.9923C-0.00810745 13.1204 0.00851788 13.2496 0.0523674 13.3705C0.0962169 13.4915 0.166211 13.6013 0.25736 13.6921C0.339099 13.7732 0.436037 13.8373 0.542617 13.8809C0.649197 13.9244 0.763321 13.9465 0.878447 13.9458ZM9.86234 1.69901L12.2505 4.08714L10.5009 5.79294L8.15653 3.44855L9.86234 1.69901ZM2.07688 9.49322L7.00184 4.60325L9.36372 6.96513L4.465 11.8638L1.84069 12.1088L2.07688 9.49322Z" fill="#1A1A1A"/>
</svg>
