<svg width="385" height="288" viewBox="0 0 385 288" fill="none" xmlns="http://www.w3.org/2000/svg">
<path d="M385 252.175H0V252.368H385V252.175Z" fill="#E0E0E0"/>
<path d="M290.798 260.323H264.31V260.516H290.798V260.323Z" fill="#E0E0E0"/>
<path d="M85.5008 260.416H70.5936V260.608H85.5008V260.416Z" fill="#E0E0E0"/>
<path d="M193.27 259.969H163.055V260.162H193.27V259.969Z" fill="#E0E0E0"/>
<path d="M162.285 257.23H148.779V257.423H162.285V257.23Z" fill="#E0E0E0"/>
<path d="M326.911 257.33H286.109V257.523H326.911V257.33Z" fill="#E0E0E0"/>
<path d="M182.49 217.86H33.8108C32.646 217.858 31.5297 217.394 30.7068 216.571C29.8839 215.747 29.4218 214.631 29.4218 213.467V4.62813C29.4319 3.47097 29.8985 2.36453 30.7203 1.54915C31.5421 0.73377 32.6527 0.275298 33.8108 0.273315H182.49C183.656 0.273315 184.774 0.736178 185.599 1.56008C186.424 2.38398 186.887 3.50143 186.887 4.6666V213.467C186.887 214.632 186.424 215.749 185.599 216.573C184.774 217.397 183.656 217.86 182.49 217.86ZM33.8108 0.427196C32.6971 0.429234 31.6297 0.872729 30.8429 1.66034C30.0561 2.44794 29.6143 3.5153 29.6143 4.62813V213.467C29.6143 214.58 30.0561 215.647 30.8429 216.435C31.6297 217.222 32.6971 217.666 33.8108 217.668H182.49C183.604 217.666 184.673 217.222 185.461 216.435C186.249 215.648 186.692 214.58 186.694 213.467V4.62813C186.692 3.5146 186.249 2.44725 185.461 1.65987C184.673 0.872479 183.604 0.42923 182.49 0.427196H33.8108Z" fill="#E0E0E0"/>
<path d="M349.049 217.86H200.362C199.196 217.858 198.079 217.395 197.255 216.571C196.431 215.748 195.967 214.631 195.965 213.467V4.62813C195.977 3.47027 196.445 2.36384 197.268 1.54867C198.091 0.733501 199.203 0.275276 200.362 0.273315H349.049C350.205 0.27732 351.314 0.736687 352.134 1.55185C352.954 2.36702 353.42 3.4723 353.43 4.62813V213.467C353.43 214.629 352.969 215.744 352.148 216.568C351.326 217.391 350.212 217.856 349.049 217.86ZM200.362 0.427196C199.247 0.42923 198.179 0.872479 197.391 1.65987C196.603 2.44725 196.16 3.5146 196.157 4.62813V213.467C196.16 214.58 196.603 215.648 197.391 216.435C198.179 217.222 199.247 217.666 200.362 217.668H349.049C350.163 217.666 351.231 217.222 352.019 216.435C352.807 215.648 353.251 214.58 353.253 213.467V4.62813C353.251 3.5146 352.807 2.44725 352.019 1.65987C351.231 0.872479 350.163 0.42923 349.049 0.427196H200.362Z" fill="#E0E0E0"/>
<path d="M338.269 155.869C328.798 141.458 337.445 125.97 336.005 109.936C334.565 93.9017 319.319 90.4086 322.207 76.8518C325.548 61.0944 316.639 45.9757 306.545 45.9757C296.45 45.9757 287.549 61.056 290.891 76.8287C293.778 90.4086 278.571 93.9094 277.092 109.913C275.614 125.917 284.299 141.458 274.821 155.846C265.342 170.234 267.837 189.338 273.173 198.81C274.592 201.323 276.303 203.66 278.27 205.773C281.887 209.652 286.264 212.746 291.129 214.861C295.994 216.976 301.243 218.068 306.549 218.068C311.854 218.068 317.103 216.976 321.968 214.861C326.833 212.746 331.21 209.652 334.827 205.773C336.789 203.658 338.497 201.321 339.917 198.81C345.26 189.361 347.747 170.311 338.269 155.869Z" fill="#E0E0E0"/>
<path d="M306.545 166.802C307.174 166.802 307.797 166.926 308.378 167.167C308.959 167.407 309.487 167.76 309.931 168.204C310.376 168.649 310.729 169.176 310.97 169.757C311.21 170.337 311.334 170.96 311.334 171.588V252.175H301.755V171.588C301.755 170.96 301.879 170.337 302.12 169.757C302.361 169.176 302.713 168.649 303.158 168.204C303.603 167.76 304.131 167.407 304.712 167.167C305.293 166.926 305.916 166.802 306.545 166.802Z" fill="#F0F0F0"/>
<path d="M246.331 252.175H233.31V171.596C233.314 169.869 234.003 168.214 235.225 166.992C236.447 165.771 238.103 165.083 239.832 165.079C241.56 165.083 243.217 165.771 244.439 166.992C245.661 168.214 246.35 169.869 246.354 171.596L246.331 252.175Z" fill="#E0E0E0"/>
<path d="M239.809 230.44C261.995 230.44 279.98 212.469 279.98 190.3C279.98 168.132 261.995 150.16 239.809 150.16C217.623 150.16 199.638 168.132 199.638 190.3C199.638 212.469 217.623 230.44 239.809 230.44Z" fill="#F0F0F0"/>
<path d="M287.013 178.255C289.12 169.776 283.95 161.195 275.465 159.089C266.979 156.983 258.392 162.149 256.284 170.628C254.176 179.107 259.346 187.688 267.832 189.794C276.317 191.9 284.905 186.734 287.013 178.255Z" fill="#F0F0F0"/>
<path d="M216.563 166.579C217.395 161.475 213.929 156.663 208.821 155.832C203.713 155.001 198.897 158.465 198.065 163.569C197.233 168.673 200.7 173.484 205.808 174.316C210.916 175.147 215.731 171.683 216.563 166.579Z" fill="#F0F0F0"/>
<path d="M217.51 166.803C221.141 166.803 224.085 163.861 224.085 160.232C224.085 156.603 221.141 153.661 217.51 153.661C213.878 153.661 210.934 156.603 210.934 160.232C210.934 163.861 213.878 166.803 217.51 166.803Z" fill="#F0F0F0"/>
<path d="M157.08 204.08C150.833 205.01 144.864 207.286 139.586 210.751C139.539 204.657 138.423 198.879 135.558 194.209C131.2 198.448 127.666 203.942 124.778 209.851C123.724 198.779 120.805 188.007 114.345 181.183C104.666 187.269 99.6764 197.409 97.3048 208.15C93.3868 200.908 87.7 194.773 80.7729 190.315C74.8516 196.548 72.9574 205.165 73.1191 213.998C66.3893 206.165 58.9203 200.056 51.6361 199.34C49.842 211.72 53.6612 223.4 58.5199 232.632C61.6744 238.556 66.3869 243.507 72.1495 246.953C77.9122 250.398 84.5065 252.206 91.2218 252.183H122.861C136.344 252.183 148.987 244.997 155.309 233.094C159.305 225.554 161.215 215.852 157.08 204.08Z" fill="#E0E0E0"/>
<path d="M148.04 44.2369C151.944 32.7959 148.81 24.6479 139.285 24.6479C133.295 24.6479 125.864 27.8564 118.626 33.0729C117.81 30.0953 115.508 28.318 111.804 28.318C105.282 28.318 96.2962 33.8269 89.2507 41.5979C87.267 39.7147 84.641 38.6558 81.9049 38.6357C75.6602 38.2817 68.1065 41.4517 61.5384 46.599C61.2093 46.1387 60.7748 45.7638 60.2711 45.5054C59.7675 45.2471 59.2093 45.1129 58.6432 45.114C55.0473 44.914 50.1732 48.1147 47.7631 52.2541C47.6168 52.508 47.4859 52.7619 47.3473 53.0235H149.934C150.242 49.4073 149.603 46.3912 148.04 44.2369Z" fill="#F0F0F0"/>
<path d="M148.356 113.706C150.265 108.12 148.749 104.143 144.082 104.143C141.149 104.143 137.522 105.681 133.988 108.259C133.797 107.541 133.357 106.914 132.746 106.491C132.135 106.068 131.393 105.877 130.654 105.951C127.473 105.951 123.084 108.644 119.635 112.444C118.668 111.521 117.384 111.004 116.047 110.998C112.967 110.821 109.309 112.367 106.098 114.883C105.943 114.661 105.737 114.478 105.497 114.35C105.258 114.222 104.992 114.151 104.72 114.145C102.964 114.045 100.585 115.607 99.407 117.63L99.1991 117.999H149.311C149.52 116.5 149.181 114.976 148.356 113.706Z" fill="#F0F0F0"/>
<path d="M263.933 71.4352C263.537 71.3797 263.139 71.3514 262.739 71.3506C263.109 65.7724 260.976 62.2024 256.41 62.2024C253.122 62.2024 249.08 64.0644 244.968 67.2112C246.146 56.378 242.373 49.338 233.826 49.338C226.942 49.338 218.218 53.9544 209.602 61.3868C208.832 57.1397 206.306 54.5853 202.04 54.5853C194.548 54.5853 183.899 62.464 175.36 73.5742C174.387 72.293 173.139 71.2459 171.708 70.5096C170.277 69.7734 168.699 69.3667 167.09 69.3194C159.96 68.8193 151.097 73.3433 143.22 80.7142C142.933 80.0927 142.477 79.5644 141.904 79.1902C141.33 78.8159 140.663 78.6108 139.978 78.5984C136.074 78.3214 130.738 82.3915 127.574 87.8312H270.208C273.558 79.5832 270.894 72.3662 263.933 71.4352Z" fill="#F0F0F0"/>
<path d="M192.5 286.921C274.954 286.921 341.795 283.022 341.795 278.212C341.795 273.402 274.954 269.502 192.5 269.502C110.046 269.502 43.2047 273.402 43.2047 278.212C43.2047 283.022 110.046 286.921 192.5 286.921Z" fill="#F5F5F5"/>
<path d="M37.6222 73.7974L213.159 99.0491L236.713 122.801L37.6222 73.7974Z" fill="#6C63FF"/>
<path opacity="0.6" d="M37.6222 73.7974L213.159 99.0491L236.713 122.801L37.6222 73.7974Z" fill="white"/>
<path d="M37.6222 73.7974L213.159 99.0491L205.012 133.395L37.6222 73.7974Z" fill="#6C63FF"/>
<path opacity="0.2" d="M37.6222 73.7974L213.159 99.0491L205.012 133.395L37.6222 73.7974Z" fill="black"/>
<path d="M201.409 34.0346L211.596 81.7375C211.861 82.9832 211.621 84.283 210.928 85.3518C210.235 86.4206 209.146 87.1712 207.9 87.4388L116.978 106.828C115.732 107.09 114.432 106.849 113.363 106.157C112.294 105.465 111.542 104.379 111.273 103.135L101.078 55.4317C100.815 54.1852 101.057 52.8854 101.752 51.8169C102.446 50.7484 103.535 49.9982 104.782 49.7304L195.703 30.3415C196.951 30.0791 198.252 30.3211 199.321 31.0147C200.39 31.7083 201.141 32.7969 201.409 34.0423V34.0346Z" fill="#6C63FF"/>
<path opacity="0.4" d="M201.409 34.0346L211.596 81.7375C211.861 82.9832 211.621 84.283 210.928 85.3518C210.235 86.4206 209.146 87.1712 207.9 87.4388L116.978 106.828C115.732 107.09 114.432 106.849 113.363 106.157C112.294 105.465 111.542 104.379 111.273 103.135L101.078 55.4317C100.815 54.1852 101.057 52.8854 101.752 51.8169C102.446 50.7484 103.535 49.9982 104.782 49.7304L195.703 30.3415C196.951 30.0791 198.252 30.3211 199.321 31.0147C200.39 31.7083 201.141 32.7969 201.409 34.0423V34.0346Z" fill="black"/>
<path d="M199.168 30.9108L168.792 68.1729C165.975 71.6277 162.061 74.0179 157.7 74.9483C153.338 75.8787 148.79 75.2935 144.806 73.2895L101.848 51.6693C102.543 50.6717 103.592 49.9757 104.782 49.7227L195.703 30.3338C196.89 30.0815 198.128 30.2876 199.168 30.9108Z" fill="#6C63FF"/>
<path d="M37.6222 73.7974L182.405 108.182L205.012 133.395L37.6222 73.7974Z" fill="#6C63FF"/>
<path opacity="0.6" d="M37.6222 73.7974L182.405 108.182L205.012 133.395L37.6222 73.7974Z" fill="white"/>
<path d="M90.4358 106.939L90.0466 107.603L106.159 117.034L106.548 116.37L90.4358 106.939Z" fill="#6C63FF"/>
<path d="M113.661 120.527L113.272 121.191L119.065 124.582L119.455 123.918L113.661 120.527Z" fill="#6C63FF"/>
<path d="M37.6222 73.7974L182.405 108.182L154.262 142.074L37.6222 73.7974Z" fill="#6C63FF"/>
<path d="M231.277 154.354C231.082 154.354 230.889 154.318 230.707 154.246L207.13 144.921C206.753 144.769 206.451 144.474 206.29 144.101C206.13 143.727 206.124 143.306 206.273 142.928C206.423 142.55 206.716 142.246 207.088 142.084C207.461 141.921 207.883 141.912 208.262 142.059L231.847 151.384C232.181 151.515 232.458 151.76 232.631 152.074C232.803 152.388 232.861 152.752 232.793 153.105C232.726 153.457 232.537 153.774 232.261 154.002C231.984 154.23 231.636 154.354 231.277 154.354Z" fill="#6C63FF"/>
<path opacity="0.3" d="M231.277 154.354C231.082 154.354 230.889 154.318 230.707 154.246L207.13 144.921C206.753 144.769 206.451 144.474 206.29 144.101C206.13 143.727 206.124 143.306 206.273 142.928C206.423 142.55 206.716 142.246 207.088 142.084C207.461 141.921 207.883 141.912 208.262 142.059L231.847 151.384C232.181 151.515 232.458 151.76 232.631 152.074C232.803 152.388 232.861 152.752 232.793 153.105C232.726 153.457 232.537 153.774 232.261 154.002C231.984 154.23 231.636 154.354 231.277 154.354Z" fill="black"/>
<path d="M229.884 140.843C229.69 140.842 229.499 140.803 229.321 140.728L216.655 135.688C216.466 135.615 216.293 135.505 216.146 135.364C215.999 135.224 215.882 135.056 215.8 134.87C215.719 134.684 215.675 134.484 215.672 134.281C215.668 134.078 215.705 133.876 215.779 133.688C215.854 133.499 215.965 133.327 216.107 133.181C216.248 133.036 216.417 132.919 216.604 132.839C216.79 132.759 216.991 132.717 217.194 132.714C217.397 132.712 217.598 132.75 217.787 132.826L230.453 137.842C230.833 137.992 231.138 138.285 231.301 138.659C231.464 139.032 231.472 139.455 231.323 139.835C231.215 140.13 231.019 140.384 230.762 140.564C230.504 140.745 230.198 140.842 229.884 140.843Z" fill="#6C63FF"/>
<path opacity="0.5" d="M229.884 140.843C229.69 140.842 229.499 140.803 229.321 140.728L216.655 135.688C216.466 135.615 216.293 135.505 216.146 135.364C215.999 135.224 215.882 135.056 215.8 134.87C215.719 134.684 215.675 134.484 215.672 134.281C215.668 134.078 215.705 133.876 215.779 133.688C215.854 133.499 215.965 133.327 216.107 133.181C216.248 133.036 216.417 132.919 216.604 132.839C216.79 132.759 216.991 132.717 217.194 132.714C217.397 132.712 217.598 132.75 217.787 132.826L230.453 137.842C230.833 137.992 231.138 138.285 231.301 138.659C231.464 139.032 231.472 139.455 231.323 139.835C231.215 140.13 231.019 140.384 230.762 140.564C230.504 140.745 230.198 140.842 229.884 140.843Z" fill="white"/>
<path d="M203.403 154.153C203.211 154.151 203.021 154.115 202.841 154.046L179.841 144.921C179.652 144.847 179.479 144.737 179.332 144.597C179.186 144.456 179.068 144.288 178.987 144.103C178.905 143.917 178.862 143.716 178.858 143.514C178.854 143.311 178.891 143.109 178.965 142.92C179.04 142.732 179.151 142.559 179.293 142.414C179.434 142.268 179.603 142.152 179.79 142.072C179.976 141.992 180.177 141.949 180.38 141.947C180.583 141.945 180.785 141.983 180.973 142.058L203.973 151.153C204.307 151.285 204.584 151.529 204.757 151.843C204.929 152.157 204.987 152.522 204.919 152.874C204.852 153.226 204.663 153.543 204.387 153.771C204.11 153.999 203.762 154.124 203.403 154.123V154.153Z" fill="#6C63FF"/>
<path opacity="0.3" d="M203.403 154.153C203.211 154.151 203.021 154.115 202.841 154.046L179.841 144.921C179.652 144.847 179.479 144.737 179.332 144.597C179.186 144.456 179.068 144.288 178.987 144.103C178.905 143.917 178.862 143.716 178.858 143.514C178.854 143.311 178.891 143.109 178.965 142.92C179.04 142.732 179.151 142.559 179.293 142.414C179.434 142.268 179.603 142.152 179.79 142.072C179.976 141.992 180.177 141.949 180.38 141.947C180.583 141.945 180.785 141.983 180.973 142.058L203.973 151.153C204.307 151.285 204.584 151.529 204.757 151.843C204.929 152.157 204.987 152.522 204.919 152.874C204.852 153.226 204.663 153.543 204.387 153.771C204.11 153.999 203.762 154.124 203.403 154.123V154.153Z" fill="black"/>
<path d="M286.671 84.7688C288.712 88.7466 290.583 92.7321 292.361 96.8099C294.14 100.888 295.796 105.019 297.243 109.351L297.767 110.99C297.859 111.282 297.99 111.759 298.067 112.098C298.144 112.436 298.213 112.821 298.252 113.144C298.428 114.386 298.518 115.638 298.521 116.891C298.533 119.204 298.425 121.515 298.198 123.816C297.768 128.27 297.069 132.695 296.104 137.065L291.876 136.596C291.822 132.264 291.784 127.886 291.63 123.616C291.561 121.492 291.437 119.361 291.222 117.361C291.124 116.421 290.97 115.489 290.76 114.568C290.721 114.352 290.66 114.191 290.613 114.014C290.567 113.837 290.521 113.775 290.444 113.544L289.859 112.09C288.25 108.197 286.44 104.273 284.592 100.365L279.002 88.6389L286.671 84.7688Z" fill="#E4897B"/>
<path d="M291.938 135.242L289.967 138.927L296.265 140.681C296.265 140.681 297.466 137.719 296.034 135.38L291.938 135.242Z" fill="#E4897B"/>
<path d="M287.557 144.236L293.347 144.698L296.265 140.681L289.967 138.927L287.557 144.236Z" fill="#E4897B"/>
<path d="M260.16 58.1784C260.075 58.6323 259.759 58.9478 259.467 58.8862C259.174 58.8246 259.013 58.4169 259.105 57.9706C259.197 57.5244 259.505 57.2012 259.798 57.2628C260.091 57.3243 260.26 57.7321 260.16 58.1784Z" fill="#263238"/>
<path d="M259.806 58.9478C258.992 60.2065 258.011 61.3481 256.887 62.3408C257.15 62.6196 257.469 62.8382 257.824 62.9816C258.179 63.1251 258.561 63.19 258.943 63.1718L259.806 58.9478Z" fill="#DE5753"/>
<path d="M262.3 56.0318C262.228 56.0299 262.159 55.9995 262.108 55.9471C261.887 55.6943 261.609 55.4971 261.297 55.3714C260.986 55.2458 260.649 55.1952 260.314 55.2239C260.25 55.2245 260.188 55.2025 260.139 55.1617C260.09 55.121 260.057 55.0642 260.046 55.0014C260.035 54.9386 260.046 54.8739 260.078 54.8189C260.111 54.7638 260.161 54.7219 260.222 54.7007C260.65 54.6465 261.085 54.6989 261.488 54.8533C261.891 55.0076 262.249 55.2592 262.532 55.5855C262.581 55.6358 262.609 55.7035 262.609 55.774C262.609 55.8445 262.581 55.9122 262.532 55.9625C262.501 55.9907 262.464 56.0116 262.424 56.0235C262.384 56.0355 262.342 56.0383 262.3 56.0318Z" fill="#263238"/>
<path d="M272.896 64.4644C272.087 68.6037 271.279 76.1747 274.174 78.9368C274.174 78.9368 273.042 83.13 265.35 83.13C256.88 83.13 261.315 78.9368 261.315 78.9368C265.935 77.8366 265.804 74.4127 265.003 71.2043L272.896 64.4644Z" fill="#E4897B"/>
<path d="M275.337 81.5452C275.945 79.5217 276.615 77.2058 275.229 76.4749C273.689 75.7054 265.319 74.8591 262.431 76.3594C259.544 77.8598 260.368 81.9761 260.368 81.9761L275.337 81.5452Z" fill="#263238"/>
<path d="M293.093 273.411C292.854 273.443 292.611 273.426 292.378 273.363C292.145 273.3 291.927 273.19 291.738 273.042C291.671 272.949 291.635 272.837 291.635 272.722C291.635 272.608 291.671 272.496 291.738 272.403C291.782 272.323 291.842 272.254 291.915 272.199C291.988 272.145 292.072 272.107 292.161 272.087C292.993 271.903 294.548 272.965 294.617 273.011C294.637 273.027 294.653 273.049 294.662 273.073C294.672 273.097 294.675 273.123 294.671 273.149C294.667 273.174 294.655 273.197 294.637 273.215C294.619 273.233 294.596 273.245 294.571 273.249C294.085 273.354 293.59 273.408 293.093 273.411ZM292.384 272.334H292.223C292.171 272.344 292.121 272.367 292.079 272.399C292.036 272.43 292.001 272.471 291.976 272.518C291.853 272.734 291.93 272.826 291.976 272.857C292.215 273.18 293.37 273.18 294.217 273.042C293.665 272.678 293.039 272.441 292.384 272.349V272.334Z" fill="#6C63FF"/>
<path d="M294.54 273.272H294.479C293.894 272.949 292.762 271.733 292.877 271.087C292.897 270.987 292.951 270.897 293.029 270.833C293.108 270.768 293.207 270.733 293.308 270.733C293.41 270.722 293.513 270.732 293.61 270.761C293.708 270.79 293.799 270.838 293.878 270.902C294.533 271.441 294.648 273.072 294.648 273.141C294.651 273.166 294.647 273.19 294.636 273.212C294.625 273.234 294.608 273.252 294.587 273.265C294.572 273.27 294.556 273.273 294.54 273.272ZM293.401 270.964H293.37C293.193 270.964 293.178 271.072 293.17 271.103C293.101 271.48 293.824 272.41 294.402 272.849C294.363 272.206 294.132 271.59 293.74 271.079C293.688 271.039 293.628 271.009 293.565 270.992C293.501 270.975 293.435 270.971 293.37 270.979L293.401 270.964Z" fill="#6C63FF"/>
<path d="M259.128 273.411C258.404 273.411 257.704 273.311 257.465 272.988C257.405 272.902 257.372 272.8 257.372 272.695C257.372 272.591 257.405 272.488 257.465 272.403C257.512 272.324 257.574 272.255 257.648 272.201C257.722 272.147 257.807 272.108 257.896 272.087C258.828 271.833 260.814 272.957 260.899 273.003C260.922 273.018 260.94 273.038 260.951 273.063C260.961 273.088 260.965 273.115 260.961 273.141C260.956 273.168 260.943 273.193 260.924 273.213C260.905 273.232 260.88 273.245 260.853 273.249C260.284 273.356 259.707 273.41 259.128 273.411ZM258.227 272.318C258.143 272.306 258.057 272.306 257.973 272.318C257.919 272.329 257.868 272.351 257.822 272.383C257.777 272.414 257.739 272.455 257.711 272.503C257.611 272.672 257.65 272.749 257.711 272.795C257.965 273.149 259.398 273.172 260.46 273.026C259.768 272.653 259.009 272.417 258.227 272.334V272.318Z" fill="#6C63FF"/>
<path d="M260.837 273.272H260.784C260.098 272.972 258.751 271.734 258.851 271.11C258.851 270.956 258.982 270.772 259.351 270.733C259.489 270.712 259.629 270.722 259.762 270.762C259.895 270.802 260.018 270.871 260.121 270.964C260.845 271.549 260.991 273.072 260.999 273.142C261.002 273.165 260.999 273.189 260.989 273.211C260.98 273.232 260.965 273.251 260.945 273.265C260.929 273.274 260.911 273.279 260.892 273.28C260.874 273.281 260.855 273.279 260.837 273.272ZM259.459 270.964H259.374C259.136 270.964 259.12 271.087 259.113 271.118C259.051 271.503 259.975 272.464 260.653 272.88C260.586 272.234 260.317 271.625 259.883 271.141C259.773 271.046 259.635 270.989 259.49 270.98L259.459 270.964Z" fill="#6C63FF"/>
<path d="M267.059 273.134H261.4L260.838 260.046H266.497L267.059 273.134Z" fill="#E4897B"/>
<path d="M301.024 273.134H295.364L292.523 260.046H298.175L301.024 273.134Z" fill="#E4897B"/>
<path d="M294.964 272.48H301.316C301.43 272.481 301.54 272.52 301.628 272.591C301.716 272.662 301.777 272.761 301.802 272.872L302.918 277.896C302.944 278.019 302.941 278.145 302.911 278.266C302.881 278.388 302.823 278.501 302.744 278.597C302.664 278.693 302.563 278.77 302.449 278.822C302.335 278.874 302.211 278.899 302.086 278.897C299.869 278.858 298.791 278.727 295.996 278.727C294.279 278.727 290.737 278.912 288.357 278.912C285.978 278.912 285.678 276.604 286.648 276.35C291.006 275.396 292.646 274.08 294.04 272.834C294.293 272.605 294.623 272.479 294.964 272.48Z" fill="#263238"/>
<path d="M261.438 272.48H267.598C267.711 272.481 267.821 272.52 267.909 272.591C267.997 272.662 268.059 272.761 268.083 272.872L269.2 277.896C269.226 278.018 269.225 278.143 269.197 278.264C269.168 278.385 269.112 278.497 269.034 278.594C268.955 278.69 268.856 278.767 268.743 278.819C268.631 278.872 268.508 278.898 268.383 278.897C266.158 278.858 262.94 278.727 260.137 278.727C256.864 278.727 254.031 278.912 250.188 278.912C247.878 278.912 247.224 276.604 248.194 276.35C252.622 275.38 256.233 275.28 260.06 272.926C260.467 272.649 260.945 272.494 261.438 272.48Z" fill="#263238"/>
<path d="M258.72 88.8621C253.99 88.4959 249.283 87.8718 244.621 86.9925C242.311 86.5462 239.955 86.0461 237.614 85.4152C235.215 84.8016 232.859 84.0305 230.561 83.107C229.968 82.8608 229.368 82.5915 228.775 82.3376C228.107 82.009 227.464 81.6336 226.85 81.2143C225.741 80.4833 224.786 79.7216 223.839 78.9676C221.953 77.4288 220.205 75.89 218.449 74.3127C215.007 71.1274 211.742 67.8344 208.593 64.3721L211.427 61.2098L222.599 69.2347C224.44 70.5581 226.303 71.8584 228.136 73.0817C229.044 73.6895 229.976 74.2589 230.831 74.7436C231.188 74.9473 231.558 75.1272 231.939 75.2822C232.394 75.4592 232.856 75.6361 233.341 75.8054C237.502 77.0858 241.758 78.0377 246.069 78.6522C250.466 79.3446 255.009 79.914 259.398 80.3756L258.72 88.8621Z" fill="#E4897B"/>
<path d="M284.299 80.2141C289.605 81.4297 294.964 96.9178 294.964 96.9178L284.053 104.743C284.053 104.743 280.973 97.5256 278.001 91.2165C274.89 84.6074 278.879 78.9753 284.299 80.2141Z" fill="#6C63FF"/>
<path opacity="0.4" d="M284.299 80.2141C289.605 81.4297 294.964 96.9178 294.964 96.9178L284.053 104.743C284.053 104.743 280.973 97.5256 278.001 91.2165C274.89 84.6074 278.879 78.9753 284.299 80.2141Z" fill="black"/>
<path d="M281.243 88.6775L279.079 93.517C281.32 98.3489 283.368 103.135 283.914 104.412C283.837 98.6951 282.752 91.6012 281.243 88.6775Z" fill="#6C63FF"/>
<path opacity="0.6" d="M281.243 88.6775L279.079 93.517C281.32 98.3489 283.368 103.135 283.914 104.412C283.837 98.6951 282.752 91.6012 281.243 88.6775Z" fill="black"/>
<path d="M252.614 80.5063C252.614 80.5063 246.593 87.3001 252.275 129.363H282.528C282.744 124.747 279.826 102.08 284.299 80.2139C280.955 79.5705 277.573 79.1439 274.174 78.9367C269.891 78.6904 265.598 78.6904 261.315 78.9367C258.378 79.2324 255.469 79.7572 252.614 80.5063Z" fill="#6C63FF"/>
<path opacity="0.4" d="M252.614 80.5063C252.614 80.5063 246.593 87.3001 252.275 129.363H282.528C282.744 124.747 279.826 102.08 284.299 80.2139C280.955 79.5705 277.573 79.1439 274.174 78.9367C269.891 78.6904 265.598 78.6904 261.315 78.9367C258.378 79.2324 255.469 79.7572 252.614 80.5063Z" fill="black"/>
<path d="M250.373 88.6775C250.173 90.2702 250.019 92.1552 249.919 94.3788C252.907 93.4828 255.745 92.1501 258.343 90.424L250.373 88.6775Z" fill="#6C63FF"/>
<path opacity="0.6" d="M250.373 88.6775C250.173 90.2702 250.019 92.1552 249.919 94.3788C252.907 93.4828 255.745 92.1501 258.343 90.424L250.373 88.6775Z" fill="black"/>
<path d="M263.34 89.5239C259.29 93.1093 243.828 92.7477 243.828 92.7477L243.32 77.7905C248.541 78.5337 253.808 78.9141 259.082 78.9292C267.698 78.7523 267.76 85.5692 263.34 89.5239Z" fill="#6C63FF"/>
<path opacity="0.4" d="M263.34 89.5239C259.29 93.1093 243.828 92.7477 243.828 92.7477L243.32 77.7905C248.541 78.5337 253.808 78.9141 259.082 78.9292C267.698 78.7523 267.76 85.5692 263.34 89.5239Z" fill="black"/>
<path d="M211.573 61.2406L207.723 56.7089L203.573 61.3253C203.573 61.3253 206.129 65.6185 210.187 64.9415L211.573 61.2406Z" fill="#E4897B"/>
<path d="M202.21 51.4231L200.716 57.3398L203.542 61.2945L207.692 56.7089L202.21 51.4231Z" fill="#E4897B"/>
<path d="M260.838 260.054L261.13 266.794H266.79L266.497 260.054H260.838Z" fill="#CE6F64"/>
<path d="M298.182 260.054H292.523L293.986 266.794H299.645L298.182 260.054Z" fill="#CE6F64"/>
<path d="M264.241 52.5925C259.167 50.2843 257.565 40.0282 272.164 42.5903C272.164 42.5903 269.962 45.0216 274.428 46.5604C278.894 48.0992 275.16 57.6014 264.241 52.5925Z" fill="#263238"/>
<path d="M275.267 60.2865C273.812 65.6723 273.242 68.95 269.877 71.2043C264.842 74.5897 258.581 70.7042 258.381 64.9568C258.204 59.7941 260.614 51.8 266.428 50.7075C267.711 50.4561 269.037 50.5374 270.28 50.9436C271.523 51.3498 272.641 52.0675 273.527 53.028C274.414 53.9886 275.039 55.1601 275.344 56.4308C275.648 57.7014 275.622 59.0289 275.267 60.2865Z" fill="#E4897B"/>
<path d="M271.964 45.2832C275.421 47.2067 280.103 48.3608 279.664 51.0999C279.086 54.4468 282.49 52.354 281.697 57.332C281.181 60.5866 275.175 70.4503 270.917 69.9733C264.557 69.2039 265.365 59.5402 265.342 54.4468C265.327 51.4384 265.188 41.4901 271.964 45.2832Z" fill="#263238"/>
<path d="M264.58 49.5996C263.04 49.9612 260.999 58.8324 266.967 59.648C273.827 60.579 264.58 49.5996 264.58 49.5996Z" fill="#263238"/>
<path d="M264.734 52.7464C262.847 52.9157 258.574 50.646 259.097 47.2298C259.097 47.2068 261.8 51.223 264.734 52.7464Z" fill="#263238"/>
<path d="M267.537 60.3559C266.958 61.6244 265.975 62.6659 264.741 63.3181C263.117 64.1644 262.2 62.9334 262.57 61.3022C262.901 59.8404 264.149 57.6322 265.819 57.4552C267.49 57.2783 268.206 58.8171 267.537 60.3559Z" fill="#E4897B"/>
<path d="M276.006 54.1313C277.157 53.6323 278.166 52.8559 278.943 51.8717C279.72 50.8874 280.24 49.7261 280.457 48.4916C280.457 48.4916 282.998 55.547 276.006 54.1313Z" fill="#263238"/>
<path d="M282.428 54.016C281.893 53.6564 281.276 53.4351 280.634 53.372C279.991 53.3089 279.343 53.4059 278.748 53.6544C278.748 53.6544 281.119 50.5845 282.428 54.016Z" fill="#263238"/>
<path d="M263.009 129.364C263.009 129.364 269.431 172.558 272.95 188.738C276.8 206.434 291.353 265.494 291.353 265.494H301.709C301.709 265.494 292.123 207.889 289.92 190.316C287.533 171.273 282.528 129.333 282.528 129.333L263.009 129.364Z" fill="#6C63FF"/>
<path opacity="0.5" d="M263.009 129.364C263.009 129.364 269.431 172.558 272.95 188.738C276.8 206.434 291.353 265.494 291.353 265.494H301.709C301.709 265.494 292.123 207.889 289.92 190.316C287.533 171.273 282.528 129.333 282.528 129.333L263.009 129.364Z" fill="white"/>
<path d="M289.697 261.677C289.651 261.677 290.767 265.655 290.767 265.655H302.425L302.21 262.108L289.697 261.677Z" fill="#6C63FF"/>
<path opacity="0.1" d="M289.697 261.677C289.651 261.677 290.767 265.655 290.767 265.655H302.425L302.21 262.108L289.697 261.677Z" fill="black"/>
<path d="M267.067 144.751C274.49 146.205 273.704 173.865 272.811 188.092C270.67 178.036 267.536 158.685 265.396 144.951C265.914 144.696 266.503 144.626 267.067 144.751Z" fill="#6C63FF"/>
<path opacity="0.4" d="M267.067 144.751C274.49 146.205 273.704 173.865 272.811 188.092C270.67 178.036 267.536 158.685 265.396 144.951C265.914 144.696 266.503 144.626 267.067 144.751Z" fill="white"/>
<path d="M252.275 129.364C252.275 129.364 251.505 171.619 252.113 188.861C252.752 206.788 259.043 265.494 259.043 265.494H268.622C268.622 265.494 268.976 207.835 269.392 190.231C269.862 171.034 272.18 129.364 272.18 129.364H252.275Z" fill="#6C63FF"/>
<path opacity="0.5" d="M252.275 129.364C252.275 129.364 251.505 171.619 252.113 188.861C252.752 206.788 259.043 265.494 259.043 265.494H268.622C268.622 265.494 268.976 207.835 269.392 190.231C269.862 171.034 272.18 129.364 272.18 129.364H252.275Z" fill="white"/>
<path d="M261.03 258.615C261.007 258.615 260.984 258.607 260.967 258.591C260.95 258.575 260.94 258.554 260.938 258.531C259.244 242.281 255.263 202.964 254.778 188.861C254.262 174.466 254.731 142.166 254.885 132.61C254.885 132.586 254.895 132.562 254.912 132.545C254.93 132.528 254.953 132.518 254.978 132.518C255.003 132.518 255.027 132.527 255.046 132.545C255.065 132.562 255.076 132.585 255.078 132.61C254.924 142.166 254.454 174.466 254.97 188.854C255.471 202.957 259.451 242.258 261.13 258.508C261.13 258.534 261.121 258.559 261.104 258.579C261.087 258.599 261.064 258.612 261.038 258.615H261.03Z" fill="#6C63FF"/>
<path opacity="0.4" d="M261.03 258.615C261.007 258.615 260.984 258.607 260.967 258.591C260.95 258.575 260.94 258.554 260.938 258.531C259.244 242.281 255.263 202.964 254.778 188.861C254.262 174.466 254.731 142.166 254.885 132.61C254.885 132.586 254.895 132.562 254.912 132.545C254.93 132.528 254.953 132.518 254.978 132.518C255.003 132.518 255.027 132.527 255.046 132.545C255.065 132.562 255.076 132.585 255.078 132.61C254.924 142.166 254.454 174.466 254.97 188.854C255.471 202.957 259.451 242.258 261.13 258.508C261.13 258.534 261.121 258.559 261.104 258.579C261.087 258.599 261.064 258.612 261.038 258.615H261.03Z" fill="white"/>
<path d="M257.18 261.677C257.142 261.677 257.727 265.655 257.727 265.655H269.377L269.693 262.108L257.18 261.677Z" fill="#6C63FF"/>
<path opacity="0.1" d="M257.18 261.677C257.142 261.677 257.727 265.655 257.727 265.655H269.377L269.693 262.108L257.18 261.677Z" fill="black"/>
</svg>
